<?xml version="1.0" encoding="utf-8"?>
<svg xmlns="http://www.w3.org/2000/svg" viewBox="0 0 120 116">
<g>
	<polygon fill="#0096AE" points="5.99,80.3 109.45,4.83 120,70.48 	"/>
	<path fill="#E6511D" d="M18.89,25.25c-0.19-6.62,1.33-9.82,3.66-13.69c2.77-4.6,8.12-7.54,10.66-8.77c5.49-2.65,11.48-3.85,18.85-1.58
		c4.12,1.27,9.46,5.36,11.48,9.15c1.7,3.19,3.4,10.08,2.08,16.14c-1.43,6.57-5.04,13.05-9.65,16.39c-2.84,2.06-5.74,5.17-12.68,5.99
		c-3.26,0.39-8.88,0.92-14.25-2.27c-4.89-2.9-8.07-10.97-8.07-10.97S19.03,30.07,18.89,25.25z"/>
	<g>
		<path fill="#9260A0" d="M24.48,110.44c0,0.17-0.14,0.41-0.4,0.72c-2.77,3.21-6.19,4.81-10.28,4.81c-4.26,0-7.66-1.55-10.22-4.66
			C1.19,108.42,0,104.8,0,100.46c0-4.34,1.21-7.97,3.64-10.9c2.58-3.15,5.99-4.73,10.24-4.73c4.3,0,7.63,1.45,9.98,4.36
			c0.23,0.3,0.34,0.55,0.34,0.74c0,0.24-0.38,0.95-1.13,2.14c-0.75,1.18-1.21,1.78-1.36,1.78c-0.18,0-0.62-0.35-1.3-1.04
			c-0.84-0.85-1.63-1.49-2.36-1.92c-1.22-0.69-2.57-1.04-4.04-1.04c-2.81,0-4.99,1.07-6.56,3.21c-1.39,1.92-2.09,4.33-2.09,7.24
			c0,2.91,0.69,5.34,2.06,7.3c1.56,2.2,3.74,3.3,6.53,3.3c1.39,0,2.73-0.35,4.02-1.04c0.85-0.45,1.72-1.1,2.6-1.94
			c0.74-0.69,1.14-1.04,1.21-1.04c0.09,0,0.55,0.56,1.4,1.69C24.05,109.7,24.48,110.32,24.48,110.44z"/>
		<path fill="#9260A0" d="M38.97,95.37c0,1.56-0.11,2.98-0.32,4.26c-0.04,0.33-0.18,0.49-0.43,0.49c-0.3,0-0.75-0.03-1.35-0.1
			c-0.6-0.06-1.06-0.1-1.37-0.1c-1.79,0-2.93,0.5-3.43,1.51c-0.3,0.61-0.45,1.88-0.45,3.81v2.34c0,0.79,0.03,2,0.1,3.62
			c0.06,1.62,0.1,2.82,0.1,3.62c0,0.38-0.16,0.57-0.49,0.57c-0.44,0-1.11-0.01-2-0.02c-0.89-0.01-1.56-0.02-2-0.02
			c-0.33,0-0.49-0.18-0.49-0.53c0-1.15,0.02-2.88,0.05-5.19c0.04-2.31,0.05-4.05,0.05-5.21c0-3.5-0.33-6.32-0.98-8.45
			c-0.03-0.11-0.04-0.2-0.04-0.26c0-0.17,0.09-0.29,0.28-0.36c0.52-0.06,1.26-0.14,2.21-0.26c1.53-0.28,2.24-0.43,2.13-0.43
			c0.23,0,0.38,0.42,0.45,1.26c0.07,0.84,0.2,1.26,0.38,1.26c0.03,0,0.06-0.01,0.11-0.04c0.58-0.37,1.16-0.74,1.75-1.11
			c0.64-0.38,1.29-0.67,1.96-0.85c0.55-0.17,1.26-0.26,2.13-0.26C38.42,94.92,38.97,95.07,38.97,95.37z"/>
		<path fill="#9260A0" d="M59.34,103.92c0,1.05-0.45,1.75-1.36,2.11c-0.61,0.23-5,0.65-13.17,1.26c0.18,1.25,0.87,2.31,2.06,3.19
			c1.13,0.84,2.36,1.26,3.66,1.26c2.24,0,4.3-0.72,6.17-2.17c0.23-0.18,0.45-0.37,0.68-0.55c0.11,0,0.19,0.01,0.22,0.04
			c0.04,0.03,0.3,0.52,0.8,1.48c0.5,0.96,0.74,1.47,0.74,1.54c0,0.09-0.11,0.25-0.34,0.49c-2.09,2.21-4.76,3.32-8.02,3.32
			c-3.29,0-5.92-0.98-7.88-2.95c-1.96-1.97-2.94-4.59-2.94-7.86c0-2.92,0.94-5.47,2.81-7.64c1.97-2.26,4.39-3.38,7.26-3.38
			c2.67,0,4.9,0.98,6.68,2.94C58.47,98.89,59.34,101.2,59.34,103.92z M54.27,102.63c0-1.18-0.46-2.22-1.39-3.13
			c-0.93-0.91-1.98-1.36-3.14-1.36c-1.31,0-2.47,0.53-3.48,1.58c-1.01,1.05-1.52,2.23-1.52,3.53c0,0.3,0.26,0.45,0.77,0.45
			c2.1,0,4.61-0.21,7.53-0.64C53.86,102.94,54.27,102.8,54.27,102.63z M56.34,87.22c-0.21,0.58-1.78,1.66-4.7,3.24
			c-2.85,1.55-4.62,2.32-5.3,2.32c-0.26,0-0.48-0.35-0.66-1.06c-0.14-0.55-0.21-1.02-0.21-1.4c0-0.14,0.13-0.28,0.4-0.4
			c2.34-1.16,4.77-2.7,7.28-4.62c0.06-0.06,0.16-0.12,0.32-0.19c0.07,0.03,0.16,0.09,0.28,0.19c0.61,0.51,1.4,1.06,2.36,1.66
			C56.18,86.98,56.25,87.08,56.34,87.22z"/>
		<path fill="#9260A0" d="M83.01,96.09c0,0.06-0.02,0.18-0.06,0.38c-0.55,3.25-0.83,6.05-0.83,8.41c0,0.14,0.18,3.33,0.53,9.56
			l0.02,0.3c0.01,0.41-0.17,0.62-0.56,0.62c-0.39,0-0.98,0.05-1.77,0.14c-0.79,0.09-1.37,0.14-1.76,0.14c-0.27,0-0.48-0.5-0.62-1.49
			c-0.14-0.99-0.28-1.49-0.4-1.49c-0.09,0-0.47,0.28-1.15,0.83c-0.84,0.68-1.62,1.2-2.34,1.55c-1.12,0.57-2.24,0.85-3.36,0.85
			c-2.75,0-5.07-1.1-6.96-3.3c-1.79-2.1-2.68-4.55-2.68-7.34c0-3.15,0.9-5.75,2.7-7.81c1.89-2.14,4.37-3.21,7.45-3.21
			c2.17,0,4.06,0.75,5.68,2.26c0.24,0.28,0.62,0.7,1.13,1.23c0.04,0.04,0.09,0.06,0.13,0.06c0.09,0,0.21-0.45,0.36-1.34
			c0.16-0.89,0.35-1.34,0.6-1.34c0.38,0,1.1,0.11,2.15,0.32C82.43,95.67,83.01,95.89,83.01,96.09z M77.58,104.99
			c0-1.75-0.52-3.24-1.55-4.49c-1.09-1.35-2.49-2.02-4.19-2.02c-1.7,0-3.12,0.67-4.26,2c-1.09,1.28-1.64,2.78-1.64,4.51
			c0,1.72,0.55,3.21,1.64,4.47c1.14,1.32,2.55,1.98,4.26,1.98c1.66,0,3.05-0.67,4.17-2.02C77.06,108.15,77.58,106.68,77.58,104.99z"
			/>
		<path fill="#9260A0" d="M98.33,111.44c0,0.31-0.03,0.74-0.09,1.28c-0.07,0.67-0.11,1.1-0.13,1.3c-0.02,0.26-0.04,0.41-0.07,0.47
			c-0.06,0.1-0.19,0.2-0.4,0.3c-1.16,0.55-2.99,0.83-5.49,0.83c-3.32,0-4.98-1.5-4.98-4.51c0-1.21,0.03-3.02,0.09-5.44
			c0.06-2.42,0.09-4.23,0.09-5.44c0-0.58-0.29-0.89-0.87-0.94c-0.53,0-1.04-0.01-1.55-0.02c-0.3-0.07-0.45-0.65-0.45-1.75
			c0-0.41,0.03-0.84,0.09-1.3c0.04-0.34,0.27-0.55,0.68-0.62c0.35,0,0.7-0.01,1.04-0.02c0.65-0.03,0.98-0.32,0.98-0.87
			c0-0.57-0.02-1.43-0.05-2.6c-0.04-1.16-0.05-2.04-0.05-2.62c0-1.04,0.2-1.55,0.59-1.55c0.13,0,1.46,0.22,4,0.66
			c0.33,0.04,0.49,0.2,0.49,0.47c0,0.62-0.05,1.56-0.14,2.81c-0.09,1.25-0.14,2.19-0.14,2.81c0,0.41,0.19,0.62,0.57,0.62h5.11
			c0.24,0,0.36,0.09,0.36,0.26c0,0.17-0.03,0.44-0.08,0.82c-0.05,0.38-0.07,0.66-0.07,0.84c0,0.21,0.01,0.54,0.02,0.98
			c0.01,0.44,0.02,0.77,0.02,0.98c0,0.27-0.2,0.4-0.6,0.4c-0.57,0-1.43-0.04-2.58-0.12c-1.15-0.08-2.01-0.12-2.57-0.12
			c-0.11,0-0.2,0.4-0.26,1.21c-0.07,1.01-0.11,2.42-0.11,4.24v3.17c0,1.22,0.11,2.07,0.34,2.55c0.34,0.74,1.04,1.11,2.11,1.11
			c0.44,0,1.08-0.1,1.94-0.29c0.85-0.19,1.48-0.29,1.89-0.29C98.25,111.05,98.33,111.18,98.33,111.44z"/>
		<path fill="#9260A0" d="M119.4,103.92c0,1.05-0.45,1.75-1.36,2.11c-0.61,0.23-5,0.65-13.17,1.26c0.18,1.25,0.87,2.31,2.06,3.19
			c1.14,0.84,2.36,1.26,3.66,1.26c2.24,0,4.3-0.72,6.17-2.17c0.23-0.18,0.45-0.37,0.68-0.55c0.11,0,0.19,0.01,0.22,0.04
			c0.04,0.03,0.3,0.52,0.8,1.48c0.5,0.96,0.74,1.47,0.74,1.54c0,0.09-0.11,0.25-0.34,0.49c-2.08,2.21-4.76,3.32-8.02,3.32
			c-3.29,0-5.92-0.98-7.87-2.95c-1.96-1.97-2.94-4.59-2.94-7.86c0-2.92,0.94-5.47,2.81-7.64c1.97-2.26,4.39-3.38,7.26-3.38
			c2.67,0,4.9,0.98,6.68,2.94C118.53,98.89,119.4,101.2,119.4,103.92z M114.34,102.63c0-1.18-0.46-2.22-1.39-3.13
			c-0.93-0.91-1.98-1.36-3.14-1.36c-1.31,0-2.47,0.53-3.48,1.58c-1.01,1.05-1.52,2.23-1.52,3.53c0,0.3,0.26,0.45,0.77,0.45
			c2.1,0,4.61-0.21,7.54-0.64C113.93,102.94,114.34,102.8,114.34,102.63z"/>
	</g>
</g>
</svg>
